<?xml version="1.0" encoding="UTF-8"?>
<!DOCTYPE svg PUBLIC "-//W3C//DTD SVG 1.0//EN" "http://www.w3.org/TR/2001/REC-SVG-20010904/DTD/svg10.dtd">
<!-- Creator: CorelDRAW 2018 (64-Bit) -->
<svg xmlns="http://www.w3.org/2000/svg" xml:space="preserve" width="106.23mm" height="37.174mm" version="1.0" style="shape-rendering:geometricPrecision; text-rendering:geometricPrecision; image-rendering:optimizeQuality; fill-rule:evenodd; clip-rule:evenodd"
viewBox="0 0 10623.02 3717.4"
 xmlns:xlink="http://www.w3.org/1999/xlink">
 <defs>
  <style type="text/css">
   <![CDATA[
    .fil1 {fill:#FEFEFE}
    .fil2 {fill:#E31E24}
    .fil0 {fill:#272524}
    .fil3 {fill:#FEFEFE;fill-rule:nonzero}
    .fil4 {fill:#E31E24;fill-rule:nonzero}
   ]]>
  </style>
 </defs>
 <g id="Layer_x0020_1">
  <metadata id="CorelCorpID_0Corel-Layer"/>
  <rect class="fil0" width="10623.02" height="3717.4"/>
  <polygon class="fil1" points="140.71,154.78 148.19,154.78 242.4,154.78 1089.26,154.78 1089.26,256.47 242.4,256.47 242.4,1095.85 140.71,1095.85 "/>
  <polygon class="fil1" points="140.71,3562.61 148.19,3562.61 242.4,3562.61 1089.26,3562.61 1089.26,3460.92 242.4,3460.92 242.4,2621.54 140.71,2621.54 "/>
  <polygon class="fil1" points="10482.3,149.24 10474.82,149.24 10380.61,149.24 9533.75,149.24 9533.75,250.93 10380.61,250.93 10380.61,1090.31 10482.3,1090.31 "/>
  <polygon class="fil1" points="10482.3,3568.15 10474.82,3568.15 10380.61,3568.15 9533.75,3568.15 9533.75,3466.46 10380.61,3466.46 10380.61,2627.08 10482.3,2627.08 "/>
  <path class="fil2" d="M1993.42 1110.85l288.81 0 0 316.78 316.78 0 0 288.81 -316.78 0 0 286.54 316.78 0 0 288.81 -316.78 0 0 316.77 -288.81 0 0 -316.77 -286.54 0 0 316.77 -288.81 0 0 -316.77 -316.77 0 0 -288.81 316.77 0 0 -286.54 -316.77 0 0 -288.81 316.77 0 0 -316.78 288.81 0 0 316.78 286.54 0 0 -316.78zm-286.54 892.13l286.54 0 0 -286.54 -286.54 0 0 286.54z"/>
  <path class="fil3" d="M3755.81 2004.78l-184.88 0 -73.2 -202.66 -340 0 -70.43 202.66 -181.54 0 329.13 -890.2 181.34 0 339.58 890.2zm-313.73 -353.09l-117.81 -329.48 -114.44 329.48 232.25 0z"/>
  <path id="1" class="fil3" d="M3847.17 1114.58l339 0c67.29,0 117.21,2.91 150.17,8.71 33.14,6.01 62.54,18.23 88.59,36.67 26.05,18.65 47.75,43.31 65.12,74.19 17.36,30.87 26.04,65.68 26.04,104.02 0,41.44 -10.65,79.78 -31.97,114.38 -21.31,34.81 -50.31,60.72 -86.81,78.12 51.5,15.96 90.96,42.9 118.78,81.02 27.63,38.13 41.43,82.89 41.43,134.49 0,40.61 -8.87,79.98 -26.83,118.32 -17.95,38.33 -42.42,69 -73.6,92 -30.98,22.79 -69.26,36.88 -114.84,42.27 -28.42,3.11 -97.27,5.18 -206.39,6.01l-288.69 0 0 -890.2zm171.68 147.96l0 205.14 112.08 0c66.49,0 107.92,-1.04 124.1,-3.11 29.21,-3.52 52.3,-14.09 69.07,-31.7 16.77,-17.62 25.06,-40.62 25.06,-69.21 0,-27.56 -7.3,-49.73 -21.71,-66.93 -14.41,-17.2 -35.91,-27.56 -64.32,-31.09 -16.97,-2.07 -65.71,-3.1 -146.02,-3.1l-98.26 0zm0 353.09l0 238.71 158.64 0c61.56,0 100.82,-1.86 117.4,-5.39 25.46,-4.97 46.18,-16.78 62.16,-35.64 15.99,-19.06 24.07,-44.13 24.07,-75.84 0,-26.94 -6.11,-49.52 -18.54,-68.17 -12.24,-18.65 -30.2,-32.33 -53.48,-40.82 -23.28,-8.5 -74,-12.85 -151.94,-12.85l-138.31 0z"/>
  <polygon id="2" class="fil3" points="4847.59,2004.78 4847.59,1265.02 4596.59,1265.02 4596.59,1114.58 5269.06,1114.58 5269.06,1265.02 5019.26,1265.02 5019.26,2004.78 "/>
  <path id="3" class="fil3" d="M5315.23 1565.07c0,-90.76 13.03,-167.02 38.87,-228.77 19.14,-45.38 45.58,-86.2 78.93,-122.25 33.35,-36.06 69.85,-62.79 109.51,-80.4 52.89,-23.42 113.86,-35.23 182.92,-35.23 125.11,0 224.95,40.82 300.13,122.26 74.98,81.64 112.47,194.99 112.47,340.25 0,144.01 -37.3,256.73 -111.69,337.96 -74.39,81.44 -174.03,122.05 -298.54,122.05 -126.09,0 -226.52,-40.4 -300.91,-121.43 -74.39,-80.81 -111.69,-192.29 -111.69,-334.44zm176.4 -6.01c0,100.91 22.31,177.38 66.7,229.59 44.39,52.02 100.83,78.12 169.1,78.12 68.48,0 124.52,-25.9 168.52,-77.49 43.8,-51.81 65.71,-129.31 65.71,-232.71 0,-102.15 -21.32,-178.41 -64.14,-228.55 -42.62,-50.36 -99.25,-75.43 -170.09,-75.43 -70.64,0 -127.66,25.49 -170.87,76.25 -43.21,50.98 -64.93,127.65 -64.93,230.22z"/>
  <polygon id="4" class="fil3" points="6462.25,2004.78 6462.25,1265.02 6211.26,1265.02 6211.26,1114.58 6883.73,1114.58 6883.73,1265.02 6633.93,1265.02 6633.93,2004.78 "/>
  <polygon id="5" class="fil3" points="6994.82,2004.78 6994.82,1114.58 7622.29,1114.58 7622.29,1265.02 7166.49,1265.02 7166.49,1462.71 7590.34,1462.71 7590.34,1613.14 7166.49,1613.14 7166.49,1854.34 7638.87,1854.34 7638.87,2004.78 "/>
  <polygon id="6" class="fil3" points="7782.12,2004.78 7782.12,1114.58 8039.23,1114.58 8191.17,1721.72 8341.33,1114.58 8599.03,1114.58 8599.03,2004.78 8440.38,2004.78 8439.79,1303.98 8272.66,2004.78 8107.7,2004.78 7941.36,1303.98 7940.77,2004.78 "/>
  <path id="7" class="fil3" d="M9534.33 2004.78l-184.89 0 -73.2 -202.66 -339.99 0 -70.44 202.66 -181.54 0 329.13 -890.2 181.35 0 339.58 890.2zm-313.74 -353.09l-117.8 -329.48 -114.44 329.48 232.24 0z"/>
  <path class="fil4" d="M2900 2114.55l140.11 0c34.37,0 59.97,2.88 76.81,8.65 16.72,5.76 31.13,16.26 43.13,31.6 12.11,15.45 18.1,33.78 18.1,55.23 0,17.19 -3.57,32.18 -10.61,44.86 -7.15,12.81 -17.76,23.53 -32.06,32.06 16.84,5.65 30.8,16.15 41.98,31.6 11.07,15.34 16.61,33.68 16.61,54.78 -2.19,34.02 -14.42,59.28 -36.44,75.65 -22.03,16.49 -54.09,24.68 -96.07,24.68l-161.56 0 0 -359.11zm60.89 151.53l64.58 0c25.71,0 43.47,-1.38 53.05,-4.04 9.68,-2.76 18.33,-8.18 25.94,-16.49 7.61,-8.18 11.42,-18.1 11.42,-29.63 0,-19.03 -6.69,-32.18 -19.95,-39.67 -13.38,-7.5 -36.21,-11.19 -68.5,-11.19l-66.54 0 0 101.02zm0 157.76l79.92 0c34.36,0 58,-4.04 70.8,-11.99 12.8,-8.07 19.49,-21.8 20.18,-41.52 0,-11.42 -3.69,-22.14 -11.07,-31.94 -7.49,-9.8 -17.18,-16.03 -29.06,-18.57 -11.88,-2.65 -31.02,-3.92 -57.31,-3.92l-73.46 0 0 107.94z"/>
  <path id="1" class="fil4" d="M3494.48 2342.19l59.51 8.31c-6.58,40.94 -23.18,72.88 -50.05,96.06 -26.87,23.18 -59.97,34.71 -99.06,34.71 -49.01,0 -88.46,-16.03 -118.21,-48.09 -29.87,-32.06 -44.74,-77.96 -44.74,-137.69 0,-38.75 6.46,-72.54 19.26,-101.6 12.8,-28.95 32.29,-50.74 58.58,-65.16 26.18,-14.53 54.66,-21.79 85.57,-21.79 38.86,0 70.81,9.8 95.48,29.52 24.8,19.72 40.71,47.74 47.63,83.95l-58.81 9c-5.65,-24.1 -15.57,-42.21 -29.99,-54.43 -14.3,-12.11 -31.59,-18.22 -51.89,-18.22 -30.68,0 -55.59,10.95 -74.84,32.86 -19.15,22.03 -28.72,56.63 -28.72,104.14 0,48.2 9.23,83.15 27.68,104.94 18.56,21.8 42.67,32.75 72.3,32.75 23.99,0 43.94,-7.26 59.86,-21.91 16.03,-14.53 26.17,-37.02 30.44,-67.35z"/>
  <path id="2" class="fil4" d="M3850.82 2357.42l62.97 8.3c-9.81,36.56 -28.14,65.04 -54.9,85.22 -26.75,20.18 -60.89,30.33 -102.52,30.33 -52.35,0 -93.87,-16.14 -124.55,-48.43 -30.67,-32.18 -46.01,-77.5 -46.01,-135.74 0,-60.2 15.45,-107.02 46.48,-140.23 31.02,-33.33 71.26,-49.93 120.74,-49.93 47.86,0 86.95,16.26 117.28,48.89 30.33,32.64 45.55,78.54 45.55,137.7 0,3.57 -0.11,8.99 -0.34,16.14l-267.43 0c2.3,39.33 13.37,69.54 33.44,90.41 19.95,20.88 44.97,31.37 74.84,31.37 22.26,0 41.29,-5.88 56.97,-17.64 15.8,-11.76 28.25,-30.56 37.48,-56.39zm-199.28 -97.57l199.97 0c-2.65,-30.21 -10.38,-52.81 -22.95,-67.92 -19.26,-23.41 -44.4,-35.17 -75.19,-35.17 -27.9,0 -51.31,9.34 -70.34,28.02 -18.92,18.68 -29.41,43.71 -31.49,75.07z"/>
  <path id="3" class="fil4" d="M4212.7 2114.55l283 0 0 358.76 -60.89 0 0 -308.25 -161.22 0 0 178.63c0,41.63 -1.38,69.08 -4.04,82.46 -2.76,13.26 -10.14,24.79 -22.25,34.71 -12.23,9.92 -29.76,14.88 -52.71,14.88 -14.18,0 -30.56,-0.93 -49.01,-2.66l0 -50.62 26.64 0c12.57,0 21.57,-1.27 26.99,-3.92 5.42,-2.54 8.99,-6.69 10.84,-12.34 1.73,-5.65 2.65,-23.99 2.65,-55.01l0 -236.64z"/>
  <path id="4" class="fil4" d="M4583.92 2611.7l-6.92 -56.28c13.38,3.58 24.91,5.42 34.83,5.42 13.61,0 24.45,-2.3 32.52,-6.8 8.19,-4.5 14.87,-10.84 20.06,-18.91 3.81,-6.12 10.04,-21.22 18.57,-45.44 1.15,-3.34 2.88,-8.3 5.42,-14.88l-136.31 -360.26 65.04 0 74.96 207.35c9.8,26.17 18.45,53.85 26.18,82.91 7.03,-27.33 15.34,-54.31 25.02,-80.84l76.58 -209.42 60.77 0 -135.73 365.34c-14.65,39.32 -26.06,66.31 -34.25,81.18 -10.84,19.95 -23.3,34.6 -37.25,43.94 -14.07,9.34 -30.79,13.96 -50.17,13.96 -11.76,0 -24.91,-2.43 -39.32,-7.27z"/>
  <path id="5" class="fil4" d="M4909.81 2114.55l60.89 0 0 67.81c0,29.29 1.73,50.51 5.31,63.66 3.46,13.14 11.88,24.67 25.25,34.48 13.27,9.8 29.99,14.64 50.17,14.64 23.06,0 52.82,-6.11 89.49,-18.22l0 -162.37 60.89 0 0 359.11 -60.89 0 0 -144.96c-37.48,11.76 -72.54,17.64 -105.06,17.64 -27.33,0 -51.43,-6.91 -72.31,-20.75 -20.87,-13.84 -35.05,-30.79 -42.55,-50.86 -7.5,-20.07 -11.19,-42.09 -11.19,-66.19l0 -93.99z"/>
  <polygon id="6" class="fil4" points="5295.22,2114.55 5356.11,2114.55 5356.11,2423.15 5494.5,2423.15 5494.5,2114.55 5555.39,2114.55 5555.39,2423.15 5693.77,2423.15 5693.77,2114.55 5754.66,2114.55 5754.66,2473.66 5295.22,2473.66 "/>
  <path id="7" class="fil4" d="M6093.13 2357.42l62.97 8.3c-9.81,36.56 -28.14,65.04 -54.9,85.22 -26.75,20.18 -60.89,30.33 -102.52,30.33 -52.35,0 -93.87,-16.14 -124.55,-48.43 -30.67,-32.18 -46.01,-77.5 -46.01,-135.74 0,-60.2 15.45,-107.02 46.48,-140.23 31.02,-33.33 71.26,-49.93 120.74,-49.93 47.86,0 86.95,16.26 117.28,48.89 30.33,32.64 45.55,78.54 45.55,137.7 0,3.57 -0.11,8.99 -0.34,16.14l-267.43 0c2.3,39.33 13.37,69.54 33.44,90.41 19.95,20.88 44.97,31.37 74.84,31.37 22.26,0 41.29,-5.88 56.97,-17.64 15.8,-11.76 28.25,-30.56 37.48,-56.39zm-199.28 -97.57l199.97 0c-2.65,-30.21 -10.38,-52.81 -22.95,-67.92 -19.26,-23.41 -44.4,-35.17 -75.19,-35.17 -27.9,0 -51.31,9.34 -70.34,28.02 -18.92,18.68 -29.41,43.71 -31.49,75.07z"/>
  <path id="8" class="fil4" d="M6477.96 2357.42l62.97 8.3c-9.81,36.56 -28.14,65.04 -54.9,85.22 -26.75,20.18 -60.89,30.33 -102.52,30.33 -52.35,0 -93.87,-16.14 -124.55,-48.43 -30.67,-32.18 -46.01,-77.5 -46.01,-135.74 0,-60.2 15.45,-107.02 46.48,-140.23 31.02,-33.33 71.26,-49.93 120.74,-49.93 47.86,0 86.95,16.26 117.28,48.89 30.33,32.64 45.55,78.54 45.55,137.7 0,3.57 -0.11,8.99 -0.34,16.14l-267.43 0c2.3,39.33 13.37,69.54 33.44,90.41 19.95,20.88 44.97,31.37 74.84,31.37 22.26,0 41.29,-5.88 56.97,-17.64 15.8,-11.76 28.25,-30.56 37.48,-56.39zm-199.28 -97.57l199.97 0c-2.65,-30.21 -10.38,-52.81 -22.95,-67.92 -19.26,-23.41 -44.4,-35.17 -75.19,-35.17 -27.9,0 -51.31,9.34 -70.34,28.02 -18.92,18.68 -29.41,43.71 -31.49,75.07z"/>
  <path id="9" class="fil4" d="M6857.83 2114.55l250.48 0 0 309.29 38.75 0 0 151.53 -49.82 0 0 -101.71 -283 0 0 101.71 -49.82 0 0 -151.53 31.83 0c42.9,-58.24 63.43,-161.33 61.58,-309.29zm50.51 50.51c-4.5,116.59 -22.49,202.85 -53.97,258.78l193.05 0 0 -258.78 -139.08 0z"/>
  <path id="10" class="fil4" d="M7243.58 2114.55l283 0 0 358.76 -60.89 0 0 -308.25 -161.22 0 0 178.63c0,41.63 -1.38,69.08 -4.04,82.46 -2.76,13.26 -10.14,24.79 -22.25,34.71 -12.23,9.92 -29.76,14.88 -52.71,14.88 -14.18,0 -30.56,-0.93 -49.01,-2.66l0 -50.62 26.64 0c12.57,0 21.57,-1.27 26.99,-3.92 5.42,-2.54 8.99,-6.69 10.84,-12.34 1.73,-5.65 2.65,-23.99 2.65,-55.01l0 -236.64z"/>
  <path id="11" class="fil4" d="M7900.57 2114.55l0 359.11 -60.89 0 0 -139.77 -35.06 0c-21.34,0 -37.25,2.77 -47.74,8.42 -10.5,5.65 -25.84,23.29 -46.02,53.16l-53.51 78.19 -75.42 0 65.74 -96.41c20.06,-29.52 40.13,-46.13 60.08,-49.93 -34.71,-4.73 -60.54,-17.3 -77.38,-37.6 -16.84,-20.29 -25.26,-43.7 -25.26,-70.11 0,-31.26 10.96,-56.51 32.98,-75.89 22.03,-19.48 53.98,-29.17 95.72,-29.17l166.76 0zm-60.89 50.51l-86.49 0c-36.22,0 -59.63,5.65 -70.12,16.95 -10.49,11.3 -15.68,24.57 -15.68,39.67 0,21.45 7.72,37.25 23.18,47.28 15.33,10.04 42.67,15.11 81.87,15.11l67.24 0 0 -119.01z"/>
  <path id="12" class="fil4" d="M8419.05 2428.68c-22.6,19.26 -44.4,32.76 -65.27,40.71 -20.87,7.96 -43.25,11.88 -67.23,11.88 -39.44,0 -69.77,-9.57 -90.99,-28.83 -21.22,-19.14 -31.83,-43.71 -31.83,-73.57 0,-17.53 4.04,-33.56 11.99,-48.09 8.08,-14.53 18.57,-26.07 31.49,-34.83 13.03,-8.77 27.56,-15.45 43.82,-19.95 11.99,-3.12 30.1,-6.11 54.2,-9.11 49.13,-5.77 85.45,-12.8 108.63,-20.87 0.23,-8.31 0.35,-13.61 0.35,-15.8 0,-24.68 -5.77,-42.1 -17.3,-52.24 -15.57,-13.73 -38.75,-20.53 -69.42,-20.53 -28.72,0 -49.94,5.07 -63.55,15.11 -13.72,10.03 -23.75,27.79 -30.33,53.39l-59.5 -8.3c5.42,-25.49 14.3,-46.13 26.75,-61.82 12.46,-15.68 30.45,-27.67 53.97,-36.21 23.41,-8.42 50.75,-12.68 81.65,-12.68 30.68,0 55.7,3.57 74.96,10.84 19.14,7.26 33.33,16.26 42.32,27.21 9,10.96 15.34,24.8 19.03,41.52 1.96,10.38 3,29.06 3,55.93l0 80.73c0,56.39 1.27,92.02 3.81,107.13 2.42,15.11 7.49,29.52 14.87,43.36l-63.66 0c-6.11,-12.8 -10.03,-27.79 -11.76,-44.98zm-4.84 -134.92c-22.14,8.99 -55.36,16.6 -99.64,22.83 -25.14,3.58 -42.9,7.61 -53.28,12.11 -10.38,4.5 -18.33,11.07 -23.99,19.61 -5.65,8.64 -8.53,18.22 -8.53,28.83 0,16.03 6.11,29.52 18.45,40.24 12.34,10.73 30.33,16.15 53.97,16.15 23.41,0 44.29,-5.08 62.62,-15.34 18.22,-10.15 31.72,-24.1 40.25,-41.75 6.57,-13.72 9.8,-33.9 9.8,-60.54l0.35 -22.14z"/>
  <path id="13" class="fil4" d="M8569.32 2114.55l140.11 0c34.37,0 59.97,2.88 76.81,8.65 16.72,5.76 31.13,16.26 43.13,31.6 12.11,15.45 18.1,33.78 18.1,55.23 0,17.19 -3.57,32.18 -10.61,44.86 -7.15,12.81 -17.76,23.53 -32.06,32.06 16.84,5.65 30.8,16.15 41.98,31.6 11.07,15.34 16.61,33.68 16.61,54.78 -2.19,34.02 -14.42,59.28 -36.44,75.65 -22.03,16.49 -54.09,24.68 -96.07,24.68l-161.56 0 0 -359.11zm60.89 151.53l64.58 0c25.71,0 43.47,-1.38 53.05,-4.04 9.68,-2.76 18.33,-8.18 25.94,-16.49 7.61,-8.18 11.42,-18.1 11.42,-29.63 0,-19.03 -6.69,-32.18 -19.95,-39.67 -13.38,-7.5 -36.21,-11.19 -68.5,-11.19l-66.54 0 0 101.02zm0 157.76l79.92 0c34.36,0 58,-4.04 70.8,-11.99 12.8,-8.07 19.49,-21.8 20.18,-41.52 0,-11.42 -3.69,-22.14 -11.07,-31.94 -7.49,-9.8 -17.18,-16.03 -29.06,-18.57 -11.88,-2.65 -31.02,-3.92 -57.31,-3.92l-73.46 0 0 107.94z"/>
  <polygon id="14" class="fil4" points="8889.92,2114.55 9180.53,2114.55 9180.53,2165.06 9065.67,2165.06 9065.67,2473.66 9004.78,2473.66 9004.78,2165.06 8889.92,2165.06 "/>
  <path id="15" class="fil4" d="M9208.08 2294.1c0,-66.31 18.46,-115.43 55.47,-147.38 30.79,-26.52 68.5,-39.78 112.9,-39.78 49.25,0 89.61,16.14 120.98,48.43 31.25,32.18 46.93,76.81 46.93,133.66 0,46.13 -6.92,82.34 -20.76,108.75 -13.83,26.41 -34.02,46.93 -60.54,61.58 -26.41,14.65 -55.35,21.91 -86.61,21.91 -50.28,0 -90.87,-16.03 -121.89,-48.2 -31.02,-32.18 -46.48,-78.54 -46.48,-138.97zm62.28 0.12c0,45.9 10.03,80.26 30.1,102.98 20.18,22.84 45.43,34.25 75.99,34.25 30.22,0 55.36,-11.41 75.54,-34.36 20.06,-22.95 30.1,-57.9 30.1,-104.83 0,-44.28 -10.15,-77.84 -30.33,-100.56 -20.18,-22.84 -45.32,-34.25 -75.31,-34.25 -30.56,0 -55.81,11.3 -75.99,34.02 -20.07,22.72 -30.1,56.97 -30.1,102.75z"/>
 </g>
</svg>
